<mxfile host="65bd71144e">
    <diagram id="zbvPsTGfLMGQ71dOKHa3" name="Page-1">
        <mxGraphModel dx="748" dy="547" grid="1" gridSize="10" guides="1" tooltips="1" connect="1" arrows="1" fold="1" page="1" pageScale="1" pageWidth="850" pageHeight="1100" math="0" shadow="0">
            <root>
                <mxCell id="0"/>
                <mxCell id="1" parent="0"/>
                <mxCell id="2" value="&lt;font style=&quot;font-size: 12px;&quot;&gt;BERT&lt;/font&gt;" style="rounded=1;whiteSpace=wrap;html=1;fontSize=12;" vertex="1" parent="1">
                    <mxGeometry x="40" y="225" width="380" height="20" as="geometry"/>
                </mxCell>
                <mxCell id="3" value="覺" style="whiteSpace=wrap;html=1;aspect=fixed;fontSize=14;" vertex="1" parent="1">
                    <mxGeometry x="90" y="275" width="30" height="30" as="geometry"/>
                </mxCell>
                <mxCell id="4" value="得" style="whiteSpace=wrap;html=1;aspect=fixed;fontSize=14;" vertex="1" parent="1">
                    <mxGeometry x="140" y="275" width="30" height="30" as="geometry"/>
                </mxCell>
                <mxCell id="5" value="非" style="whiteSpace=wrap;html=1;aspect=fixed;fontSize=14;" vertex="1" parent="1">
                    <mxGeometry x="190" y="275" width="30" height="30" as="geometry"/>
                </mxCell>
                <mxCell id="6" value="常" style="whiteSpace=wrap;html=1;aspect=fixed;fontSize=14;" vertex="1" parent="1">
                    <mxGeometry x="240" y="275" width="30" height="30" as="geometry"/>
                </mxCell>
                <mxCell id="7" value="榮" style="whiteSpace=wrap;html=1;aspect=fixed;fontSize=14;" vertex="1" parent="1">
                    <mxGeometry x="290" y="275" width="30" height="30" as="geometry"/>
                </mxCell>
                <mxCell id="8" value="幸" style="whiteSpace=wrap;html=1;aspect=fixed;fontSize=14;" vertex="1" parent="1">
                    <mxGeometry x="340" y="275" width="30" height="30" as="geometry"/>
                </mxCell>
                <mxCell id="9" value="&lt;font style=&quot;font-size: 11px&quot;&gt;[CLS]&lt;/font&gt;" style="whiteSpace=wrap;html=1;aspect=fixed;fontSize=11;" vertex="1" parent="1">
                    <mxGeometry x="40" y="275" width="30" height="30" as="geometry"/>
                </mxCell>
                <mxCell id="10" value="&lt;font style=&quot;font-size: 11px&quot;&gt;[SEP]&lt;/font&gt;" style="whiteSpace=wrap;html=1;aspect=fixed;fontSize=11;" vertex="1" parent="1">
                    <mxGeometry x="390" y="275" width="30" height="30" as="geometry"/>
                </mxCell>
                <mxCell id="11" value="Linear" style="whiteSpace=wrap;html=1;fontSize=12;" vertex="1" parent="1">
                    <mxGeometry x="90" y="175" width="290" height="20" as="geometry"/>
                </mxCell>
                <mxCell id="12" value="Softmax" style="whiteSpace=wrap;html=1;fontSize=12;" vertex="1" parent="1">
                    <mxGeometry x="90" y="125" width="290" height="20" as="geometry"/>
                </mxCell>
                <mxCell id="13" value="" style="group" vertex="1" connectable="0" parent="1">
                    <mxGeometry x="45" y="150" width="370" height="20" as="geometry"/>
                </mxCell>
                <mxCell id="14" value="" style="html=1;shadow=0;dashed=0;align=center;verticalAlign=middle;shape=mxgraph.arrows2.arrow;dy=0.5;dx=11.18;direction=north;notch=0;fontSize=12;container=0;" vertex="1" parent="13">
                    <mxGeometry x="50" width="20" height="20" as="geometry"/>
                </mxCell>
                <mxCell id="15" value="" style="html=1;shadow=0;dashed=0;align=center;verticalAlign=middle;shape=mxgraph.arrows2.arrow;dy=0.5;dx=11.18;direction=north;notch=0;fontSize=12;container=0;" vertex="1" parent="13">
                    <mxGeometry x="100" width="20" height="20" as="geometry"/>
                </mxCell>
                <mxCell id="16" value="" style="html=1;shadow=0;dashed=0;align=center;verticalAlign=middle;shape=mxgraph.arrows2.arrow;dy=0.5;dx=11.18;direction=north;notch=0;fontSize=12;container=0;" vertex="1" parent="13">
                    <mxGeometry x="150" width="20" height="20" as="geometry"/>
                </mxCell>
                <mxCell id="17" value="" style="html=1;shadow=0;dashed=0;align=center;verticalAlign=middle;shape=mxgraph.arrows2.arrow;dy=0.5;dx=11.18;direction=north;notch=0;fontSize=12;container=0;" vertex="1" parent="13">
                    <mxGeometry x="200" width="20" height="20" as="geometry"/>
                </mxCell>
                <mxCell id="18" value="" style="html=1;shadow=0;dashed=0;align=center;verticalAlign=middle;shape=mxgraph.arrows2.arrow;dy=0.5;dx=11.18;direction=north;notch=0;fontSize=12;container=0;" vertex="1" parent="13">
                    <mxGeometry x="250" width="20" height="20" as="geometry"/>
                </mxCell>
                <mxCell id="19" value="" style="html=1;shadow=0;dashed=0;align=center;verticalAlign=middle;shape=mxgraph.arrows2.arrow;dy=0.5;dx=11.18;direction=north;notch=0;fontSize=12;container=0;" vertex="1" parent="13">
                    <mxGeometry x="300" width="20" height="20" as="geometry"/>
                </mxCell>
                <mxCell id="20" value="" style="group" vertex="1" connectable="0" parent="1">
                    <mxGeometry x="45" y="35" width="370" height="85" as="geometry"/>
                </mxCell>
                <mxCell id="21" value="" style="group" vertex="1" connectable="0" parent="20">
                    <mxGeometry y="65" width="370" height="20" as="geometry"/>
                </mxCell>
                <mxCell id="22" value="" style="html=1;shadow=0;dashed=0;align=center;verticalAlign=middle;shape=mxgraph.arrows2.arrow;dy=0.5;dx=11.18;direction=north;notch=0;fontSize=12;container=0;" vertex="1" parent="21">
                    <mxGeometry x="50" width="20" height="20" as="geometry"/>
                </mxCell>
                <mxCell id="23" value="" style="html=1;shadow=0;dashed=0;align=center;verticalAlign=middle;shape=mxgraph.arrows2.arrow;dy=0.5;dx=11.18;direction=north;notch=0;fontSize=12;container=0;" vertex="1" parent="21">
                    <mxGeometry x="100" width="20" height="20" as="geometry"/>
                </mxCell>
                <mxCell id="24" value="" style="html=1;shadow=0;dashed=0;align=center;verticalAlign=middle;shape=mxgraph.arrows2.arrow;dy=0.5;dx=11.18;direction=north;notch=0;fontSize=12;container=0;" vertex="1" parent="21">
                    <mxGeometry x="150" width="20" height="20" as="geometry"/>
                </mxCell>
                <mxCell id="25" value="" style="html=1;shadow=0;dashed=0;align=center;verticalAlign=middle;shape=mxgraph.arrows2.arrow;dy=0.5;dx=11.18;direction=north;notch=0;fontSize=12;container=0;" vertex="1" parent="21">
                    <mxGeometry x="200" width="20" height="20" as="geometry"/>
                </mxCell>
                <mxCell id="26" value="" style="html=1;shadow=0;dashed=0;align=center;verticalAlign=middle;shape=mxgraph.arrows2.arrow;dy=0.5;dx=11.18;direction=north;notch=0;fontSize=12;container=0;" vertex="1" parent="21">
                    <mxGeometry x="250" width="20" height="20" as="geometry"/>
                </mxCell>
                <mxCell id="27" value="" style="html=1;shadow=0;dashed=0;align=center;verticalAlign=middle;shape=mxgraph.arrows2.arrow;dy=0.5;dx=11.18;direction=north;notch=0;fontSize=12;container=0;" vertex="1" parent="21">
                    <mxGeometry x="300" width="20" height="20" as="geometry"/>
                </mxCell>
                <mxCell id="28" value="" style="group" vertex="1" connectable="0" parent="20">
                    <mxGeometry x="50" y="-5" width="320" height="65" as="geometry"/>
                </mxCell>
                <mxCell id="29" value="" style="rounded=1;whiteSpace=wrap;html=1;fontSize=12;container=0;" vertex="1" parent="28">
                    <mxGeometry width="20" height="65" as="geometry"/>
                </mxCell>
                <mxCell id="30" value="" style="ellipse;whiteSpace=wrap;html=1;aspect=fixed;fontSize=12;container=0;" vertex="1" parent="28">
                    <mxGeometry x="5" y="5" width="10" height="10" as="geometry"/>
                </mxCell>
                <mxCell id="31" value="" style="ellipse;whiteSpace=wrap;html=1;aspect=fixed;fontSize=12;container=0;" vertex="1" parent="28">
                    <mxGeometry x="5" y="20" width="10" height="10" as="geometry"/>
                </mxCell>
                <mxCell id="32" value="" style="ellipse;whiteSpace=wrap;html=1;aspect=fixed;fontSize=12;container=0;" vertex="1" parent="28">
                    <mxGeometry x="5" y="35" width="10" height="10" as="geometry"/>
                </mxCell>
                <mxCell id="33" value="" style="ellipse;whiteSpace=wrap;html=1;aspect=fixed;fontSize=12;container=0;" vertex="1" parent="28">
                    <mxGeometry x="5" y="50" width="10" height="10" as="geometry"/>
                </mxCell>
                <mxCell id="34" value="" style="rounded=1;whiteSpace=wrap;html=1;fontSize=12;container=0;" vertex="1" parent="28">
                    <mxGeometry x="50" width="20" height="65" as="geometry"/>
                </mxCell>
                <mxCell id="35" value="" style="ellipse;whiteSpace=wrap;html=1;aspect=fixed;fontSize=12;container=0;" vertex="1" parent="28">
                    <mxGeometry x="55" y="5" width="10" height="10" as="geometry"/>
                </mxCell>
                <mxCell id="36" value="" style="ellipse;whiteSpace=wrap;html=1;aspect=fixed;fontSize=12;container=0;" vertex="1" parent="28">
                    <mxGeometry x="55" y="20" width="10" height="10" as="geometry"/>
                </mxCell>
                <mxCell id="37" value="" style="ellipse;whiteSpace=wrap;html=1;aspect=fixed;fontSize=12;container=0;" vertex="1" parent="28">
                    <mxGeometry x="55" y="35" width="10" height="10" as="geometry"/>
                </mxCell>
                <mxCell id="38" value="" style="ellipse;whiteSpace=wrap;html=1;aspect=fixed;fontSize=12;container=0;" vertex="1" parent="28">
                    <mxGeometry x="55" y="50" width="10" height="10" as="geometry"/>
                </mxCell>
                <mxCell id="39" value="" style="rounded=1;whiteSpace=wrap;html=1;fontSize=12;container=0;" vertex="1" parent="28">
                    <mxGeometry x="100" width="20" height="65" as="geometry"/>
                </mxCell>
                <mxCell id="40" value="" style="ellipse;whiteSpace=wrap;html=1;aspect=fixed;fontSize=12;container=0;" vertex="1" parent="28">
                    <mxGeometry x="105" y="5" width="10" height="10" as="geometry"/>
                </mxCell>
                <mxCell id="41" value="" style="ellipse;whiteSpace=wrap;html=1;aspect=fixed;fontSize=12;container=0;" vertex="1" parent="28">
                    <mxGeometry x="105" y="20" width="10" height="10" as="geometry"/>
                </mxCell>
                <mxCell id="42" value="" style="ellipse;whiteSpace=wrap;html=1;aspect=fixed;fontSize=12;container=0;" vertex="1" parent="28">
                    <mxGeometry x="105" y="35" width="10" height="10" as="geometry"/>
                </mxCell>
                <mxCell id="43" value="" style="ellipse;whiteSpace=wrap;html=1;aspect=fixed;fontSize=12;container=0;" vertex="1" parent="28">
                    <mxGeometry x="105" y="50" width="10" height="10" as="geometry"/>
                </mxCell>
                <mxCell id="44" value="" style="rounded=1;whiteSpace=wrap;html=1;fontSize=12;container=0;" vertex="1" parent="28">
                    <mxGeometry x="150" width="20" height="65" as="geometry"/>
                </mxCell>
                <mxCell id="45" value="" style="ellipse;whiteSpace=wrap;html=1;aspect=fixed;fontSize=12;container=0;" vertex="1" parent="28">
                    <mxGeometry x="155" y="5" width="10" height="10" as="geometry"/>
                </mxCell>
                <mxCell id="46" value="" style="ellipse;whiteSpace=wrap;html=1;aspect=fixed;fontSize=12;container=0;" vertex="1" parent="28">
                    <mxGeometry x="155" y="20" width="10" height="10" as="geometry"/>
                </mxCell>
                <mxCell id="47" value="" style="ellipse;whiteSpace=wrap;html=1;aspect=fixed;fontSize=12;container=0;" vertex="1" parent="28">
                    <mxGeometry x="155" y="35" width="10" height="10" as="geometry"/>
                </mxCell>
                <mxCell id="48" value="" style="ellipse;whiteSpace=wrap;html=1;aspect=fixed;fontSize=12;container=0;" vertex="1" parent="28">
                    <mxGeometry x="155" y="50" width="10" height="10" as="geometry"/>
                </mxCell>
                <mxCell id="49" value="" style="rounded=1;whiteSpace=wrap;html=1;fontSize=12;container=0;" vertex="1" parent="28">
                    <mxGeometry x="200" width="20" height="65" as="geometry"/>
                </mxCell>
                <mxCell id="50" value="" style="ellipse;whiteSpace=wrap;html=1;aspect=fixed;fontSize=12;container=0;" vertex="1" parent="28">
                    <mxGeometry x="205" y="5" width="10" height="10" as="geometry"/>
                </mxCell>
                <mxCell id="51" value="" style="ellipse;whiteSpace=wrap;html=1;aspect=fixed;fontSize=12;container=0;" vertex="1" parent="28">
                    <mxGeometry x="205" y="20" width="10" height="10" as="geometry"/>
                </mxCell>
                <mxCell id="52" value="" style="ellipse;whiteSpace=wrap;html=1;aspect=fixed;fontSize=12;container=0;" vertex="1" parent="28">
                    <mxGeometry x="205" y="35" width="10" height="10" as="geometry"/>
                </mxCell>
                <mxCell id="53" value="" style="ellipse;whiteSpace=wrap;html=1;aspect=fixed;fontSize=12;container=0;" vertex="1" parent="28">
                    <mxGeometry x="205" y="50" width="10" height="10" as="geometry"/>
                </mxCell>
                <mxCell id="54" value="" style="rounded=1;whiteSpace=wrap;html=1;fontSize=12;container=0;" vertex="1" parent="28">
                    <mxGeometry x="250" width="20" height="65" as="geometry"/>
                </mxCell>
                <mxCell id="55" value="" style="ellipse;whiteSpace=wrap;html=1;aspect=fixed;fontSize=12;container=0;" vertex="1" parent="28">
                    <mxGeometry x="255" y="5" width="10" height="10" as="geometry"/>
                </mxCell>
                <mxCell id="56" value="" style="ellipse;whiteSpace=wrap;html=1;aspect=fixed;fontSize=12;container=0;" vertex="1" parent="28">
                    <mxGeometry x="255" y="20" width="10" height="10" as="geometry"/>
                </mxCell>
                <mxCell id="57" value="" style="ellipse;whiteSpace=wrap;html=1;aspect=fixed;fontSize=12;container=0;" vertex="1" parent="28">
                    <mxGeometry x="255" y="35" width="10" height="10" as="geometry"/>
                </mxCell>
                <mxCell id="58" value="" style="ellipse;whiteSpace=wrap;html=1;aspect=fixed;fontSize=12;container=0;" vertex="1" parent="28">
                    <mxGeometry x="255" y="50" width="10" height="10" as="geometry"/>
                </mxCell>
                <mxCell id="59" value="&lt;b&gt;B&lt;/b&gt;" style="text;html=1;strokeColor=none;fillColor=none;align=center;verticalAlign=middle;whiteSpace=wrap;rounded=0;fontSize=12;" vertex="1" parent="1">
                    <mxGeometry x="365" y="30" width="20" height="20" as="geometry"/>
                </mxCell>
                <mxCell id="60" value="&lt;b&gt;M&lt;/b&gt;" style="text;html=1;strokeColor=none;fillColor=none;align=center;verticalAlign=middle;whiteSpace=wrap;rounded=0;fontSize=12;" vertex="1" parent="1">
                    <mxGeometry x="365" y="45" width="20" height="20" as="geometry"/>
                </mxCell>
                <mxCell id="61" value="&lt;b&gt;E&lt;/b&gt;" style="text;html=1;strokeColor=none;fillColor=none;align=center;verticalAlign=middle;whiteSpace=wrap;rounded=0;fontSize=12;" vertex="1" parent="1">
                    <mxGeometry x="365" y="60" width="20" height="20" as="geometry"/>
                </mxCell>
                <mxCell id="62" value="&lt;b&gt;S&lt;/b&gt;" style="text;html=1;strokeColor=none;fillColor=none;align=center;verticalAlign=middle;whiteSpace=wrap;rounded=0;fontSize=12;" vertex="1" parent="1">
                    <mxGeometry x="365" y="75" width="20" height="20" as="geometry"/>
                </mxCell>
                <mxCell id="63" value="" style="html=1;shadow=0;dashed=0;align=center;verticalAlign=middle;shape=mxgraph.arrows2.arrow;dy=0.5;dx=11.18;direction=north;notch=0;fontSize=12;" vertex="1" parent="1">
                    <mxGeometry x="95" y="200" width="20" height="20" as="geometry"/>
                </mxCell>
                <mxCell id="64" value="" style="html=1;shadow=0;dashed=0;align=center;verticalAlign=middle;shape=mxgraph.arrows2.arrow;dy=0.5;dx=11.18;direction=north;notch=0;fontSize=12;" vertex="1" parent="1">
                    <mxGeometry x="145" y="200" width="20" height="20" as="geometry"/>
                </mxCell>
                <mxCell id="65" value="" style="html=1;shadow=0;dashed=0;align=center;verticalAlign=middle;shape=mxgraph.arrows2.arrow;dy=0.5;dx=11.18;direction=north;notch=0;fontSize=12;" vertex="1" parent="1">
                    <mxGeometry x="195" y="200" width="20" height="20" as="geometry"/>
                </mxCell>
                <mxCell id="66" value="" style="html=1;shadow=0;dashed=0;align=center;verticalAlign=middle;shape=mxgraph.arrows2.arrow;dy=0.5;dx=11.18;direction=north;notch=0;fontSize=12;" vertex="1" parent="1">
                    <mxGeometry x="245" y="200" width="20" height="20" as="geometry"/>
                </mxCell>
                <mxCell id="67" value="" style="html=1;shadow=0;dashed=0;align=center;verticalAlign=middle;shape=mxgraph.arrows2.arrow;dy=0.5;dx=11.18;direction=north;notch=0;fontSize=12;" vertex="1" parent="1">
                    <mxGeometry x="295" y="200" width="20" height="20" as="geometry"/>
                </mxCell>
                <mxCell id="68" value="" style="html=1;shadow=0;dashed=0;align=center;verticalAlign=middle;shape=mxgraph.arrows2.arrow;dy=0.5;dx=11.18;direction=north;notch=0;fontSize=12;" vertex="1" parent="1">
                    <mxGeometry x="345" y="200" width="20" height="20" as="geometry"/>
                </mxCell>
                <mxCell id="69" value="" style="html=1;shadow=0;dashed=0;align=center;verticalAlign=middle;shape=mxgraph.arrows2.arrow;dy=0.5;dx=11.18;direction=north;notch=0;fontSize=12;" vertex="1" parent="1">
                    <mxGeometry x="45" y="250" width="20" height="20" as="geometry"/>
                </mxCell>
                <mxCell id="70" value="" style="html=1;shadow=0;dashed=0;align=center;verticalAlign=middle;shape=mxgraph.arrows2.arrow;dy=0.5;dx=11.18;direction=north;notch=0;fontSize=12;" vertex="1" parent="1">
                    <mxGeometry x="95" y="250" width="20" height="20" as="geometry"/>
                </mxCell>
                <mxCell id="71" value="" style="html=1;shadow=0;dashed=0;align=center;verticalAlign=middle;shape=mxgraph.arrows2.arrow;dy=0.5;dx=11.18;direction=north;notch=0;fontSize=12;" vertex="1" parent="1">
                    <mxGeometry x="145" y="250" width="20" height="20" as="geometry"/>
                </mxCell>
                <mxCell id="72" value="" style="html=1;shadow=0;dashed=0;align=center;verticalAlign=middle;shape=mxgraph.arrows2.arrow;dy=0.5;dx=11.18;direction=north;notch=0;fontSize=12;" vertex="1" parent="1">
                    <mxGeometry x="195" y="250" width="20" height="20" as="geometry"/>
                </mxCell>
                <mxCell id="73" value="" style="html=1;shadow=0;dashed=0;align=center;verticalAlign=middle;shape=mxgraph.arrows2.arrow;dy=0.5;dx=11.18;direction=north;notch=0;fontSize=12;" vertex="1" parent="1">
                    <mxGeometry x="245" y="250" width="20" height="20" as="geometry"/>
                </mxCell>
                <mxCell id="74" value="" style="html=1;shadow=0;dashed=0;align=center;verticalAlign=middle;shape=mxgraph.arrows2.arrow;dy=0.5;dx=11.18;direction=north;notch=0;fontSize=12;" vertex="1" parent="1">
                    <mxGeometry x="295" y="250" width="20" height="20" as="geometry"/>
                </mxCell>
                <mxCell id="75" value="" style="html=1;shadow=0;dashed=0;align=center;verticalAlign=middle;shape=mxgraph.arrows2.arrow;dy=0.5;dx=11.18;direction=north;notch=0;fontSize=12;" vertex="1" parent="1">
                    <mxGeometry x="345" y="250" width="20" height="20" as="geometry"/>
                </mxCell>
                <mxCell id="76" value="" style="html=1;shadow=0;dashed=0;align=center;verticalAlign=middle;shape=mxgraph.arrows2.arrow;dy=0.5;dx=11.18;direction=north;notch=0;fontSize=12;" vertex="1" parent="1">
                    <mxGeometry x="395" y="250" width="20" height="20" as="geometry"/>
                </mxCell>
                <mxCell id="77" value="&lt;font style=&quot;font-size: 12px;&quot;&gt;BERT&lt;/font&gt;" style="rounded=1;whiteSpace=wrap;html=1;fontSize=12;" vertex="1" parent="1">
                    <mxGeometry x="460" y="225" width="430" height="20" as="geometry"/>
                </mxCell>
                <mxCell id="78" value="覺" style="whiteSpace=wrap;html=1;aspect=fixed;fontSize=14;" vertex="1" parent="1">
                    <mxGeometry x="560" y="275" width="30" height="30" as="geometry"/>
                </mxCell>
                <mxCell id="79" value="得" style="whiteSpace=wrap;html=1;aspect=fixed;fontSize=14;" vertex="1" parent="1">
                    <mxGeometry x="610" y="275" width="30" height="30" as="geometry"/>
                </mxCell>
                <mxCell id="80" value="非" style="whiteSpace=wrap;html=1;aspect=fixed;fontSize=14;" vertex="1" parent="1">
                    <mxGeometry x="660" y="275" width="30" height="30" as="geometry"/>
                </mxCell>
                <mxCell id="81" value="常" style="whiteSpace=wrap;html=1;aspect=fixed;fontSize=14;" vertex="1" parent="1">
                    <mxGeometry x="710" y="275" width="30" height="30" as="geometry"/>
                </mxCell>
                <mxCell id="82" value="榮" style="whiteSpace=wrap;html=1;aspect=fixed;fontSize=14;" vertex="1" parent="1">
                    <mxGeometry x="760" y="275" width="30" height="30" as="geometry"/>
                </mxCell>
                <mxCell id="83" value="幸" style="whiteSpace=wrap;html=1;aspect=fixed;fontSize=14;" vertex="1" parent="1">
                    <mxGeometry x="810" y="275" width="30" height="30" as="geometry"/>
                </mxCell>
                <mxCell id="84" value="&lt;font style=&quot;font-size: 11px&quot;&gt;[UNC]&lt;/font&gt;" style="whiteSpace=wrap;html=1;aspect=fixed;fontSize=12;" vertex="1" parent="1">
                    <mxGeometry x="510" y="275" width="30" height="30" as="geometry"/>
                </mxCell>
                <mxCell id="85" value="&lt;font style=&quot;font-size: 11px&quot;&gt;[CLS]&lt;/font&gt;" style="whiteSpace=wrap;html=1;aspect=fixed;fontSize=11;" vertex="1" parent="1">
                    <mxGeometry x="460" y="275" width="30" height="30" as="geometry"/>
                </mxCell>
                <mxCell id="86" value="&lt;font style=&quot;font-size: 11px&quot;&gt;[SEP]&lt;/font&gt;" style="whiteSpace=wrap;html=1;aspect=fixed;fontSize=11;" vertex="1" parent="1">
                    <mxGeometry x="860" y="275" width="30" height="30" as="geometry"/>
                </mxCell>
                <mxCell id="87" value="Linear" style="whiteSpace=wrap;html=1;fontSize=12;" vertex="1" parent="1">
                    <mxGeometry x="500" y="175" width="50" height="20" as="geometry"/>
                </mxCell>
                <mxCell id="88" value="Linear" style="whiteSpace=wrap;html=1;fontSize=12;" vertex="1" parent="1">
                    <mxGeometry x="560" y="175" width="290" height="20" as="geometry"/>
                </mxCell>
                <mxCell id="89" value="Softmax" style="whiteSpace=wrap;html=1;fontSize=12;" vertex="1" parent="1">
                    <mxGeometry x="560" y="125" width="290" height="20" as="geometry"/>
                </mxCell>
                <mxCell id="90" value="Softmax" style="whiteSpace=wrap;html=1;fontSize=12;" vertex="1" parent="1">
                    <mxGeometry x="500" y="125" width="50" height="20" as="geometry"/>
                </mxCell>
                <mxCell id="91" value="" style="group" vertex="1" connectable="0" parent="1">
                    <mxGeometry x="465" y="200" width="420" height="20" as="geometry"/>
                </mxCell>
                <mxCell id="92" value="" style="html=1;shadow=0;dashed=0;align=center;verticalAlign=middle;shape=mxgraph.arrows2.arrow;dy=0.5;dx=11.18;direction=north;notch=0;fontSize=12;" vertex="1" parent="91">
                    <mxGeometry x="50" width="20" height="20" as="geometry"/>
                </mxCell>
                <mxCell id="93" value="" style="html=1;shadow=0;dashed=0;align=center;verticalAlign=middle;shape=mxgraph.arrows2.arrow;dy=0.5;dx=11.18;direction=north;notch=0;fontSize=12;" vertex="1" parent="91">
                    <mxGeometry x="100" width="20" height="20" as="geometry"/>
                </mxCell>
                <mxCell id="94" value="" style="html=1;shadow=0;dashed=0;align=center;verticalAlign=middle;shape=mxgraph.arrows2.arrow;dy=0.5;dx=11.18;direction=north;notch=0;fontSize=12;" vertex="1" parent="91">
                    <mxGeometry x="150" width="20" height="20" as="geometry"/>
                </mxCell>
                <mxCell id="95" value="" style="html=1;shadow=0;dashed=0;align=center;verticalAlign=middle;shape=mxgraph.arrows2.arrow;dy=0.5;dx=11.18;direction=north;notch=0;fontSize=12;" vertex="1" parent="91">
                    <mxGeometry x="200" width="20" height="20" as="geometry"/>
                </mxCell>
                <mxCell id="96" value="" style="html=1;shadow=0;dashed=0;align=center;verticalAlign=middle;shape=mxgraph.arrows2.arrow;dy=0.5;dx=11.18;direction=north;notch=0;fontSize=12;" vertex="1" parent="91">
                    <mxGeometry x="250" width="20" height="20" as="geometry"/>
                </mxCell>
                <mxCell id="97" value="" style="html=1;shadow=0;dashed=0;align=center;verticalAlign=middle;shape=mxgraph.arrows2.arrow;dy=0.5;dx=11.18;direction=north;notch=0;fontSize=12;" vertex="1" parent="91">
                    <mxGeometry x="300" width="20" height="20" as="geometry"/>
                </mxCell>
                <mxCell id="98" value="" style="html=1;shadow=0;dashed=0;align=center;verticalAlign=middle;shape=mxgraph.arrows2.arrow;dy=0.5;dx=11.18;direction=north;notch=0;fontSize=12;" vertex="1" parent="91">
                    <mxGeometry x="350" width="20" height="20" as="geometry"/>
                </mxCell>
                <mxCell id="99" value="" style="group" vertex="1" connectable="0" parent="1">
                    <mxGeometry x="465" y="250" width="420" height="20" as="geometry"/>
                </mxCell>
                <mxCell id="100" value="" style="html=1;shadow=0;dashed=0;align=center;verticalAlign=middle;shape=mxgraph.arrows2.arrow;dy=0.5;dx=11.18;direction=north;notch=0;fontSize=12;" vertex="1" parent="99">
                    <mxGeometry width="20" height="20" as="geometry"/>
                </mxCell>
                <mxCell id="101" value="" style="html=1;shadow=0;dashed=0;align=center;verticalAlign=middle;shape=mxgraph.arrows2.arrow;dy=0.5;dx=11.18;direction=north;notch=0;fontSize=12;" vertex="1" parent="99">
                    <mxGeometry x="50" width="20" height="20" as="geometry"/>
                </mxCell>
                <mxCell id="102" value="" style="html=1;shadow=0;dashed=0;align=center;verticalAlign=middle;shape=mxgraph.arrows2.arrow;dy=0.5;dx=11.18;direction=north;notch=0;fontSize=12;" vertex="1" parent="99">
                    <mxGeometry x="100" width="20" height="20" as="geometry"/>
                </mxCell>
                <mxCell id="103" value="" style="html=1;shadow=0;dashed=0;align=center;verticalAlign=middle;shape=mxgraph.arrows2.arrow;dy=0.5;dx=11.18;direction=north;notch=0;fontSize=12;" vertex="1" parent="99">
                    <mxGeometry x="150" width="20" height="20" as="geometry"/>
                </mxCell>
                <mxCell id="104" value="" style="html=1;shadow=0;dashed=0;align=center;verticalAlign=middle;shape=mxgraph.arrows2.arrow;dy=0.5;dx=11.18;direction=north;notch=0;fontSize=12;" vertex="1" parent="99">
                    <mxGeometry x="200" width="20" height="20" as="geometry"/>
                </mxCell>
                <mxCell id="105" value="" style="html=1;shadow=0;dashed=0;align=center;verticalAlign=middle;shape=mxgraph.arrows2.arrow;dy=0.5;dx=11.18;direction=north;notch=0;fontSize=12;" vertex="1" parent="99">
                    <mxGeometry x="250" width="20" height="20" as="geometry"/>
                </mxCell>
                <mxCell id="106" value="" style="html=1;shadow=0;dashed=0;align=center;verticalAlign=middle;shape=mxgraph.arrows2.arrow;dy=0.5;dx=11.18;direction=north;notch=0;fontSize=12;" vertex="1" parent="99">
                    <mxGeometry x="300" width="20" height="20" as="geometry"/>
                </mxCell>
                <mxCell id="107" value="" style="html=1;shadow=0;dashed=0;align=center;verticalAlign=middle;shape=mxgraph.arrows2.arrow;dy=0.5;dx=11.18;direction=north;notch=0;fontSize=12;" vertex="1" parent="99">
                    <mxGeometry x="350" width="20" height="20" as="geometry"/>
                </mxCell>
                <mxCell id="108" value="" style="html=1;shadow=0;dashed=0;align=center;verticalAlign=middle;shape=mxgraph.arrows2.arrow;dy=0.5;dx=11.18;direction=north;notch=0;fontSize=12;" vertex="1" parent="99">
                    <mxGeometry x="400" width="20" height="20" as="geometry"/>
                </mxCell>
                <mxCell id="109" value="" style="group" vertex="1" connectable="0" parent="1">
                    <mxGeometry x="515" y="150" width="370" height="20" as="geometry"/>
                </mxCell>
                <mxCell id="110" value="" style="html=1;shadow=0;dashed=0;align=center;verticalAlign=middle;shape=mxgraph.arrows2.arrow;dy=0.5;dx=11.18;direction=north;notch=0;fontSize=12;container=0;" vertex="1" parent="109">
                    <mxGeometry width="20" height="20" as="geometry"/>
                </mxCell>
                <mxCell id="111" value="" style="html=1;shadow=0;dashed=0;align=center;verticalAlign=middle;shape=mxgraph.arrows2.arrow;dy=0.5;dx=11.18;direction=north;notch=0;fontSize=12;container=0;" vertex="1" parent="109">
                    <mxGeometry x="50" width="20" height="20" as="geometry"/>
                </mxCell>
                <mxCell id="112" value="" style="html=1;shadow=0;dashed=0;align=center;verticalAlign=middle;shape=mxgraph.arrows2.arrow;dy=0.5;dx=11.18;direction=north;notch=0;fontSize=12;container=0;" vertex="1" parent="109">
                    <mxGeometry x="100" width="20" height="20" as="geometry"/>
                </mxCell>
                <mxCell id="113" value="" style="html=1;shadow=0;dashed=0;align=center;verticalAlign=middle;shape=mxgraph.arrows2.arrow;dy=0.5;dx=11.18;direction=north;notch=0;fontSize=12;container=0;" vertex="1" parent="109">
                    <mxGeometry x="150" width="20" height="20" as="geometry"/>
                </mxCell>
                <mxCell id="114" value="" style="html=1;shadow=0;dashed=0;align=center;verticalAlign=middle;shape=mxgraph.arrows2.arrow;dy=0.5;dx=11.18;direction=north;notch=0;fontSize=12;container=0;" vertex="1" parent="109">
                    <mxGeometry x="200" width="20" height="20" as="geometry"/>
                </mxCell>
                <mxCell id="115" value="" style="html=1;shadow=0;dashed=0;align=center;verticalAlign=middle;shape=mxgraph.arrows2.arrow;dy=0.5;dx=11.18;direction=north;notch=0;fontSize=12;container=0;" vertex="1" parent="109">
                    <mxGeometry x="250" width="20" height="20" as="geometry"/>
                </mxCell>
                <mxCell id="116" value="" style="html=1;shadow=0;dashed=0;align=center;verticalAlign=middle;shape=mxgraph.arrows2.arrow;dy=0.5;dx=11.18;direction=north;notch=0;fontSize=12;container=0;" vertex="1" parent="109">
                    <mxGeometry x="300" width="20" height="20" as="geometry"/>
                </mxCell>
                <mxCell id="117" value="" style="group" vertex="1" connectable="0" parent="1">
                    <mxGeometry x="515" y="35" width="370" height="85" as="geometry"/>
                </mxCell>
                <mxCell id="118" value="" style="group" vertex="1" connectable="0" parent="117">
                    <mxGeometry y="65" width="370" height="20" as="geometry"/>
                </mxCell>
                <mxCell id="119" value="" style="html=1;shadow=0;dashed=0;align=center;verticalAlign=middle;shape=mxgraph.arrows2.arrow;dy=0.5;dx=11.18;direction=north;notch=0;fontSize=12;container=0;" vertex="1" parent="118">
                    <mxGeometry width="20" height="20" as="geometry"/>
                </mxCell>
                <mxCell id="120" value="" style="html=1;shadow=0;dashed=0;align=center;verticalAlign=middle;shape=mxgraph.arrows2.arrow;dy=0.5;dx=11.18;direction=north;notch=0;fontSize=12;container=0;" vertex="1" parent="118">
                    <mxGeometry x="50" width="20" height="20" as="geometry"/>
                </mxCell>
                <mxCell id="121" value="" style="html=1;shadow=0;dashed=0;align=center;verticalAlign=middle;shape=mxgraph.arrows2.arrow;dy=0.5;dx=11.18;direction=north;notch=0;fontSize=12;container=0;" vertex="1" parent="118">
                    <mxGeometry x="100" width="20" height="20" as="geometry"/>
                </mxCell>
                <mxCell id="122" value="" style="html=1;shadow=0;dashed=0;align=center;verticalAlign=middle;shape=mxgraph.arrows2.arrow;dy=0.5;dx=11.18;direction=north;notch=0;fontSize=12;container=0;" vertex="1" parent="118">
                    <mxGeometry x="150" width="20" height="20" as="geometry"/>
                </mxCell>
                <mxCell id="123" value="" style="html=1;shadow=0;dashed=0;align=center;verticalAlign=middle;shape=mxgraph.arrows2.arrow;dy=0.5;dx=11.18;direction=north;notch=0;fontSize=12;container=0;" vertex="1" parent="118">
                    <mxGeometry x="200" width="20" height="20" as="geometry"/>
                </mxCell>
                <mxCell id="124" value="" style="html=1;shadow=0;dashed=0;align=center;verticalAlign=middle;shape=mxgraph.arrows2.arrow;dy=0.5;dx=11.18;direction=north;notch=0;fontSize=12;container=0;" vertex="1" parent="118">
                    <mxGeometry x="250" width="20" height="20" as="geometry"/>
                </mxCell>
                <mxCell id="125" value="" style="html=1;shadow=0;dashed=0;align=center;verticalAlign=middle;shape=mxgraph.arrows2.arrow;dy=0.5;dx=11.18;direction=north;notch=0;fontSize=12;container=0;" vertex="1" parent="118">
                    <mxGeometry x="300" width="20" height="20" as="geometry"/>
                </mxCell>
                <mxCell id="126" value="" style="group" vertex="1" connectable="0" parent="117">
                    <mxGeometry x="50" y="-5" width="320" height="65" as="geometry"/>
                </mxCell>
                <mxCell id="127" value="" style="rounded=1;whiteSpace=wrap;html=1;fontSize=12;container=0;" vertex="1" parent="126">
                    <mxGeometry width="20" height="65" as="geometry"/>
                </mxCell>
                <mxCell id="128" value="" style="ellipse;whiteSpace=wrap;html=1;aspect=fixed;fontSize=12;container=0;" vertex="1" parent="126">
                    <mxGeometry x="5" y="5" width="10" height="10" as="geometry"/>
                </mxCell>
                <mxCell id="129" value="" style="ellipse;whiteSpace=wrap;html=1;aspect=fixed;fontSize=12;container=0;" vertex="1" parent="126">
                    <mxGeometry x="5" y="20" width="10" height="10" as="geometry"/>
                </mxCell>
                <mxCell id="130" value="" style="ellipse;whiteSpace=wrap;html=1;aspect=fixed;fontSize=12;container=0;" vertex="1" parent="126">
                    <mxGeometry x="5" y="35" width="10" height="10" as="geometry"/>
                </mxCell>
                <mxCell id="131" value="" style="ellipse;whiteSpace=wrap;html=1;aspect=fixed;fontSize=12;container=0;" vertex="1" parent="126">
                    <mxGeometry x="5" y="50" width="10" height="10" as="geometry"/>
                </mxCell>
                <mxCell id="132" value="" style="rounded=1;whiteSpace=wrap;html=1;fontSize=12;container=0;" vertex="1" parent="126">
                    <mxGeometry x="50" width="20" height="65" as="geometry"/>
                </mxCell>
                <mxCell id="133" value="" style="ellipse;whiteSpace=wrap;html=1;aspect=fixed;fontSize=12;container=0;" vertex="1" parent="126">
                    <mxGeometry x="55" y="5" width="10" height="10" as="geometry"/>
                </mxCell>
                <mxCell id="134" value="" style="ellipse;whiteSpace=wrap;html=1;aspect=fixed;fontSize=12;container=0;" vertex="1" parent="126">
                    <mxGeometry x="55" y="20" width="10" height="10" as="geometry"/>
                </mxCell>
                <mxCell id="135" value="" style="ellipse;whiteSpace=wrap;html=1;aspect=fixed;fontSize=12;container=0;" vertex="1" parent="126">
                    <mxGeometry x="55" y="35" width="10" height="10" as="geometry"/>
                </mxCell>
                <mxCell id="136" value="" style="ellipse;whiteSpace=wrap;html=1;aspect=fixed;fontSize=12;container=0;" vertex="1" parent="126">
                    <mxGeometry x="55" y="50" width="10" height="10" as="geometry"/>
                </mxCell>
                <mxCell id="137" value="" style="rounded=1;whiteSpace=wrap;html=1;fontSize=12;container=0;" vertex="1" parent="126">
                    <mxGeometry x="100" width="20" height="65" as="geometry"/>
                </mxCell>
                <mxCell id="138" value="" style="ellipse;whiteSpace=wrap;html=1;aspect=fixed;fontSize=12;container=0;" vertex="1" parent="126">
                    <mxGeometry x="105" y="5" width="10" height="10" as="geometry"/>
                </mxCell>
                <mxCell id="139" value="" style="ellipse;whiteSpace=wrap;html=1;aspect=fixed;fontSize=12;container=0;" vertex="1" parent="126">
                    <mxGeometry x="105" y="20" width="10" height="10" as="geometry"/>
                </mxCell>
                <mxCell id="140" value="" style="ellipse;whiteSpace=wrap;html=1;aspect=fixed;fontSize=12;container=0;" vertex="1" parent="126">
                    <mxGeometry x="105" y="35" width="10" height="10" as="geometry"/>
                </mxCell>
                <mxCell id="141" value="" style="ellipse;whiteSpace=wrap;html=1;aspect=fixed;fontSize=12;container=0;" vertex="1" parent="126">
                    <mxGeometry x="105" y="50" width="10" height="10" as="geometry"/>
                </mxCell>
                <mxCell id="142" value="" style="rounded=1;whiteSpace=wrap;html=1;fontSize=12;container=0;" vertex="1" parent="126">
                    <mxGeometry x="150" width="20" height="65" as="geometry"/>
                </mxCell>
                <mxCell id="143" value="" style="ellipse;whiteSpace=wrap;html=1;aspect=fixed;fontSize=12;container=0;" vertex="1" parent="126">
                    <mxGeometry x="155" y="5" width="10" height="10" as="geometry"/>
                </mxCell>
                <mxCell id="144" value="" style="ellipse;whiteSpace=wrap;html=1;aspect=fixed;fontSize=12;container=0;" vertex="1" parent="126">
                    <mxGeometry x="155" y="20" width="10" height="10" as="geometry"/>
                </mxCell>
                <mxCell id="145" value="" style="ellipse;whiteSpace=wrap;html=1;aspect=fixed;fontSize=12;container=0;" vertex="1" parent="126">
                    <mxGeometry x="155" y="35" width="10" height="10" as="geometry"/>
                </mxCell>
                <mxCell id="146" value="" style="ellipse;whiteSpace=wrap;html=1;aspect=fixed;fontSize=12;container=0;" vertex="1" parent="126">
                    <mxGeometry x="155" y="50" width="10" height="10" as="geometry"/>
                </mxCell>
                <mxCell id="147" value="" style="rounded=1;whiteSpace=wrap;html=1;fontSize=12;container=0;" vertex="1" parent="126">
                    <mxGeometry x="200" width="20" height="65" as="geometry"/>
                </mxCell>
                <mxCell id="148" value="" style="ellipse;whiteSpace=wrap;html=1;aspect=fixed;fontSize=12;container=0;" vertex="1" parent="126">
                    <mxGeometry x="205" y="5" width="10" height="10" as="geometry"/>
                </mxCell>
                <mxCell id="149" value="" style="ellipse;whiteSpace=wrap;html=1;aspect=fixed;fontSize=12;container=0;" vertex="1" parent="126">
                    <mxGeometry x="205" y="20" width="10" height="10" as="geometry"/>
                </mxCell>
                <mxCell id="150" value="" style="ellipse;whiteSpace=wrap;html=1;aspect=fixed;fontSize=12;container=0;" vertex="1" parent="126">
                    <mxGeometry x="205" y="35" width="10" height="10" as="geometry"/>
                </mxCell>
                <mxCell id="151" value="" style="ellipse;whiteSpace=wrap;html=1;aspect=fixed;fontSize=12;container=0;" vertex="1" parent="126">
                    <mxGeometry x="205" y="50" width="10" height="10" as="geometry"/>
                </mxCell>
                <mxCell id="152" value="" style="rounded=1;whiteSpace=wrap;html=1;fontSize=12;container=0;" vertex="1" parent="126">
                    <mxGeometry x="250" width="20" height="65" as="geometry"/>
                </mxCell>
                <mxCell id="153" value="" style="ellipse;whiteSpace=wrap;html=1;aspect=fixed;fontSize=12;container=0;" vertex="1" parent="126">
                    <mxGeometry x="255" y="5" width="10" height="10" as="geometry"/>
                </mxCell>
                <mxCell id="154" value="" style="ellipse;whiteSpace=wrap;html=1;aspect=fixed;fontSize=12;container=0;" vertex="1" parent="126">
                    <mxGeometry x="255" y="20" width="10" height="10" as="geometry"/>
                </mxCell>
                <mxCell id="155" value="" style="ellipse;whiteSpace=wrap;html=1;aspect=fixed;fontSize=12;container=0;" vertex="1" parent="126">
                    <mxGeometry x="255" y="35" width="10" height="10" as="geometry"/>
                </mxCell>
                <mxCell id="156" value="" style="ellipse;whiteSpace=wrap;html=1;aspect=fixed;fontSize=12;container=0;" vertex="1" parent="126">
                    <mxGeometry x="255" y="50" width="10" height="10" as="geometry"/>
                </mxCell>
                <mxCell id="157" value="" style="rounded=1;whiteSpace=wrap;html=1;fontSize=12;container=0;" vertex="1" parent="1">
                    <mxGeometry x="515" y="20" width="20" height="75" as="geometry"/>
                </mxCell>
                <mxCell id="158" value="" style="ellipse;whiteSpace=wrap;html=1;aspect=fixed;fontSize=12;container=0;" vertex="1" parent="1">
                    <mxGeometry x="520" y="25" width="10" height="10" as="geometry"/>
                </mxCell>
                <mxCell id="159" value="" style="ellipse;whiteSpace=wrap;html=1;aspect=fixed;fontSize=12;container=0;" vertex="1" parent="1">
                    <mxGeometry x="520" y="65" width="10" height="10" as="geometry"/>
                </mxCell>
                <mxCell id="160" value="" style="ellipse;whiteSpace=wrap;html=1;aspect=fixed;fontSize=12;container=0;" vertex="1" parent="1">
                    <mxGeometry x="520" y="80" width="10" height="10" as="geometry"/>
                </mxCell>
                <mxCell id="161" value="" style="endArrow=none;dashed=1;html=1;dashPattern=1 3;strokeWidth=2;fontSize=12;" edge="1" parent="1">
                    <mxGeometry width="50" height="50" relative="1" as="geometry">
                        <mxPoint x="525" y="40" as="sourcePoint"/>
                        <mxPoint x="525" y="60" as="targetPoint"/>
                    </mxGeometry>
                </mxCell>
                <mxCell id="162" value="&lt;b&gt;B&lt;/b&gt;" style="text;html=1;strokeColor=none;fillColor=none;align=center;verticalAlign=middle;whiteSpace=wrap;rounded=0;fontSize=12;" vertex="1" parent="1">
                    <mxGeometry x="835" y="30" width="20" height="20" as="geometry"/>
                </mxCell>
                <mxCell id="163" value="&lt;b&gt;M&lt;/b&gt;" style="text;html=1;strokeColor=none;fillColor=none;align=center;verticalAlign=middle;whiteSpace=wrap;rounded=0;fontSize=12;" vertex="1" parent="1">
                    <mxGeometry x="835" y="45" width="20" height="20" as="geometry"/>
                </mxCell>
                <mxCell id="164" value="&lt;b&gt;E&lt;/b&gt;" style="text;html=1;strokeColor=none;fillColor=none;align=center;verticalAlign=middle;whiteSpace=wrap;rounded=0;fontSize=12;" vertex="1" parent="1">
                    <mxGeometry x="835" y="60" width="20" height="20" as="geometry"/>
                </mxCell>
                <mxCell id="165" value="&lt;b&gt;S&lt;/b&gt;" style="text;html=1;strokeColor=none;fillColor=none;align=center;verticalAlign=middle;whiteSpace=wrap;rounded=0;fontSize=12;" vertex="1" parent="1">
                    <mxGeometry x="835" y="75" width="20" height="20" as="geometry"/>
                </mxCell>
                <mxCell id="166" value="&lt;b&gt;AS&lt;/b&gt;" style="text;html=1;strokeColor=none;fillColor=none;align=center;verticalAlign=middle;whiteSpace=wrap;rounded=0;fontSize=12;" vertex="1" parent="1">
                    <mxGeometry x="490" y="20" width="25" height="20" as="geometry"/>
                </mxCell>
                <mxCell id="167" value="&lt;b&gt;WTB&lt;/b&gt;" style="text;html=1;strokeColor=none;fillColor=none;align=center;verticalAlign=middle;whiteSpace=wrap;rounded=0;fontSize=12;" vertex="1" parent="1">
                    <mxGeometry x="485" y="60" width="30" height="20" as="geometry"/>
                </mxCell>
                <mxCell id="168" value="&lt;b&gt;ZX&lt;/b&gt;" style="text;html=1;strokeColor=none;fillColor=none;align=center;verticalAlign=middle;whiteSpace=wrap;rounded=0;fontSize=12;" vertex="1" parent="1">
                    <mxGeometry x="490" y="75" width="25" height="20" as="geometry"/>
                </mxCell>
            </root>
        </mxGraphModel>
    </diagram>
</mxfile>